<svg xmlns="http://www.w3.org/2000/svg" xmlns:xlink="http://www.w3.org/1999/xlink" viewBox="0 0 200 200" role="img" aria-label="Tilapiya Fish 'N Dine">
  <defs>
    <path id="arcTop" d="M26,100 a74,74 0 1,1 148,0" fill="none"/>
    <path id="arcBot" d="M36,100 a64,64 0 1,0 128,0" fill="none"/>
  </defs>
  <circle cx="100" cy="100" r="99" fill="#1c6f88"/>
  <circle cx="100" cy="100" r="90" fill="none" stroke="#ffffff" stroke-width="2.5" opacity="0.92"/>
  <text fill="#ffffff" font-family="Georgia,'Times New Roman',serif" font-size="22" font-weight="700" letter-spacing="6"><textPath href="#arcTop" xlink:href="#arcTop" startOffset="50%" text-anchor="middle">TILAPIYA</textPath></text>
  <text fill="#ffffff" font-family="Georgia,'Times New Roman',serif" font-size="17" font-weight="700" letter-spacing="4"><textPath href="#arcBot" xlink:href="#arcBot" startOffset="50%" text-anchor="middle">FISH 'N DINE</textPath></text>
  <circle cx="18" cy="100" r="3" fill="#ffffff"/>
  <circle cx="182" cy="100" r="3" fill="#ffffff"/>
  <circle cx="100" cy="100" r="55" fill="#ffffff"/>
  <g stroke="#1c6f88" stroke-width="3.2" stroke-linecap="round" stroke-linejoin="round" fill="none">
    <path d="M83 84 a16 16 0 1 0 0 32"/>
    <line x1="86" y1="100" x2="128" y2="100"/>
    <line x1="92" y1="86" x2="92" y2="114"/>
    <line x1="100" y1="84" x2="96" y2="100"/><line x1="100" y1="84" x2="100" y2="100"/><line x1="100" y1="84" x2="104" y2="100"/>
    <line x1="118" y1="90" x2="118" y2="114"/>
    <ellipse cx="118" cy="86" rx="5" ry="6.5"/>
  </g>
  <path d="M128 100 L142 87 L139 100 L142 113 Z" fill="#1c6f88"/>
  <circle cx="80" cy="93" r="3" fill="#1c6f88"/>
</svg>
